# Blender v2.93.1 OBJ File: ''
# www.blender.org
mtllib paper.mtl
o Paper
v -0.134400 0.001477 0.188160
v 0.134400 0.001477 0.188160
v -0.134400 0.001477 -0.188160
v 0.134400 0.001477 -0.188160
v -0.134400 -0.017615 -0.094080
v -0.134400 -0.025175 0.000000
v -0.134400 -0.017615 0.094080
v 0.134400 -0.017615 0.094080
v 0.134400 -0.025175 0.000000
v 0.134400 -0.017615 -0.094080
vt 0.000000 0.750000
vt 1.000000 0.750000
vt 1.000000 1.000000
vt 0.000000 1.000000
vt 0.000000 0.000000
vt 1.000000 0.000000
vt 1.000000 0.250000
vt 0.000000 0.250000
vt 1.000000 0.500000
vt 0.000000 0.500000
vn 0.0000 0.9902 0.1397
vn 0.0000 0.9800 0.1989
vn 0.0000 0.9800 -0.1989
vn 0.0000 0.9902 -0.1397
vn 0.0000 1.0000 0.0000
usemtl None
s 1
f 5/1/1 10/2/1 4/3/2 3/4/2
f 1/5/3 2/6/3 8/7/4 7/8/4
f 7/8/4 8/7/4 9/9/5 6/10/5
f 6/10/5 9/9/5 10/2/1 5/1/1
